# xmcd CD database file
#
# Track frame offsets:
#	150
#	10175
#	35572
#	50972
#	73987
#	89325
#	103142
#	126977
#	140090
#	160260
#
# Disc length: 2274 seconds
#
# Revision: 1
# Processed by: cddbd v1.4PL0 Copyright (c) Steve Scherf et al.
# Submitted via: CDex 1.51
#
DISCID=9808e00a
DTITLE=Zora Young - Travelin' Light
DYEAR=1992
DGENRE=Blues
TTITLE0=Daughter of a Son of a Gun
TTITLE1=Travelin' Light
TTITLE2=Girlfriend
TTITLE3=Queen Bee
TTITLE4=Key to The Highway
TTITLE5=Stumbling Blocks and Stepping Stones
TTITLE6=Country Girl Returns
TTITLE7=Football Widow
TTITLE8=Brain Damage
TTITLE9=Dirty MamaJama
EXTD=YEAR: 1992
EXTT0=
EXTT1=
EXTT2=
EXTT3=
EXTT4=
EXTT5=
EXTT6=
EXTT7=
EXTT8=
EXTT9=
PLAYORDER=
